<svg xmlns="http://www.w3.org/2000/svg" viewBox="0 0 470.22 489.39"><defs><style>.cls-1,.cls-2{fill:none;stroke:#000;stroke-miterlimit:10;stroke-width:5px;}.cls-2{stroke-linecap:round;}</style></defs><title>compas</title><g id="Layer_2" data-name="Layer 2"><g id="Layer_1-2" data-name="Layer 1"><circle class="cls-1" cx="263.5" cy="258.29" r="115.5"/><path class="cls-2" d="M344.21,217.92a89.86,89.86,0,1,1-16.84-23.34"/><line class="cls-2" x1="334.31" y1="203.29" x2="339.12" y2="208.79"/><line class="cls-2" x1="263.5" y1="168.23" x2="263.5" y2="189.54"/><line class="cls-2" x1="352.87" y1="257.6" x2="331.56" y2="257.6"/><line class="cls-2" x1="195.44" y1="257.6" x2="174.12" y2="257.6"/><line class="cls-2" x1="263.5" y1="347.67" x2="263.5" y2="326.35"/><path class="cls-1" d="M299.19,217.46l-50,25.28A2.87,2.87,0,0,0,248,244l-25.29,50a2.87,2.87,0,0,0,3.82,3.87l50.57-24.7a2.86,2.86,0,0,0,1.32-1.32l24.69-50.57A2.86,2.86,0,0,0,299.19,217.46Z"/><circle class="cls-1" cx="262.81" cy="129.04" r="15.81"/><path id="_225" data-name="225" class="cls-1" d="M304.14,293.37l-25.28-50a2.87,2.87,0,0,0-1.27-1.26l-50-25.28a2.86,2.86,0,0,0-3.87,3.81l24.7,50.57a2.89,2.89,0,0,0,1.31,1.32l50.57,24.69A2.87,2.87,0,0,0,304.14,293.37Z"/><path id="_180" data-name="180" class="cls-1" d="M209.83,259.76l53.22,17.46a2.88,2.88,0,0,0,1.79,0l53.22-17.46a2.87,2.87,0,0,0,0-5.44L264.88,236a2.82,2.82,0,0,0-1.86,0L209.8,254.32A2.87,2.87,0,0,0,209.83,259.76Z"/><path id="_90" data-name="90" class="cls-1" d="M259.22,201.34l-17.46,53.22a2.88,2.88,0,0,0,0,1.79l17.46,53.22a2.87,2.87,0,0,0,5.44,0L283,256.38a2.82,2.82,0,0,0,0-1.86L264.66,201.3A2.87,2.87,0,0,0,259.22,201.34Z"/><path class="cls-1" d="M152.49,373.79a146.89,146.89,0,0,0,17-11.5"/><path class="cls-1" d="M134.2,382.62a136.65,136.65,0,0,0,12.77-5.8"/><path class="cls-1" d="M111.86,389.13c3.71-.71,7.58-1.64,11.64-2.84q2.9-.85,5.65-1.81"/><path class="cls-1" d="M81.6,391.11a137.7,137.7,0,0,0,21.15-.6"/><path class="cls-1" d="M60.06,390c4.7,0,9.63.39,14.92.72"/><path class="cls-1" d="M31.94,398.35a39.51,39.51,0,0,1,19.41-7.84"/><path class="cls-1" d="M15.81,419.51a63.42,63.42,0,0,1,9.73-15.19"/><path class="cls-1" d="M6.53,450.13a145.17,145.17,0,0,1,5.56-21.45"/><path class="cls-1" d="M2.5,489.29c.39-10.14,1.14-19.24,2.2-27.42"/><path class="cls-1" d="M448.12,2.71A102,102,0,0,1,469.5,6.29"/><path class="cls-1" d="M428.92,3.37a92,92,0,0,1,13.49-.87"/><path class="cls-1" d="M411.25,8.09a71.17,71.17,0,0,1,12.46-3.81"/><path class="cls-1" d="M393.5,19.29A59.89,59.89,0,0,1,405,11.11"/><path class="cls-1" d="M380,36.92a65,65,0,0,1,9.31-13.41"/><path class="cls-1" d="M371.72,62.3a87.66,87.66,0,0,1,5.66-19.87"/><path class="cls-1" d="M371.31,87.21a69.87,69.87,0,0,1-.81-9.92,79.73,79.73,0,0,1,.5-9.69"/><path class="cls-1" d="M377.41,108.92c-1.56-4.66-3.32-9.37-4.67-14.71"/><path class="cls-1" d="M379.59,140.83c.36-1.47.66-3,.91-4.54A48,48,0,0,0,380,118"/><path class="cls-1" d="M362.5,171.29A76.64,76.64,0,0,0,375.17,153"/></g></g></svg>